<svg xmlns="http://www.w3.org/2000/svg" id="master-artboard" width="410" height="170" x="0" y="0" enable-background="new 0 0 336 235.2" version="1.1" viewBox="0 0 410 170"><rect id="ee-background" width="410" height="170" x="0" y="0" fill="#fff" fill-opacity="0" pointer-events="none"/><metadata id="metadata8"/><g id="g12" transform="matrix(0.2472536563873291, 0, 0, -0.2472536563873291, 9.095534426672657, 928.8041629946797)"><path id="path16" fill="red" fill-opacity="1" fill-rule="nonzero" stroke="none" d="m 2357.12,2535.95 v 222.49 c 0,4.15 0,8.82 0,14.01 0,5.19 0.29,10.61 0.89,16.24 -1.49,-1.48 -2.52,-3.05 -3.11,-4.67 -0.6,-1.64 -1.64,-3.19 -3.12,-4.67 -4.45,-4.45 -10.53,-11.27 -18.24,-20.47 -7.72,-9.2 -16.25,-20.02 -25.59,-32.48 -9.34,-12.46 -19.29,-26.25 -29.81,-41.39 -10.54,-15.13 -20.77,-30.99 -30.7,-47.61 -9.95,-16.61 -19.36,-33.52 -28.26,-50.72 -8.9,-17.22 -16.62,-34.12 -23.14,-50.73 z m 167.76,-67.19 h -82.77 v -148.62 h -84.99 v 148.62 h -243.4 l -5.34,26.25 c 3.26,18.69 10.31,40.2 21.14,64.53 10.82,24.32 23.95,49.68 39.38,76.09 15.42,26.39 32.4,52.95 50.95,79.64 18.53,26.7 37.07,51.84 55.62,75.43 18.53,23.58 36.33,44.72 53.4,63.4 17.05,18.7 31.96,33.23 44.71,43.61 h 68.53 v -361.76 h 82.77 v -67.19" transform="matrix(1.1509478092193604, 0, 0, 1.0414228439331055, -2416.805495600282, 681.9921655135122)"/><path id="path18" fill="red" fill-opacity="1" fill-rule="nonzero" stroke="none" d="m 2907.64,2603.59 c 0,77.42 -8.89,135.34 -26.7,173.75 -17.8,38.42 -43.9,57.63 -78.31,57.63 -36.79,0 -64.52,-19.51 -83.21,-58.51 -18.69,-39.02 -28.03,-98.12 -28.03,-177.33 0,-72.97 9.19,-127.56 27.58,-163.75 18.39,-36.19 45.39,-54.28 80.99,-54.28 35.3,0 62.07,18.39 80.31,55.18 18.25,36.78 27.37,92.55 27.37,167.31 z m 87.21,6.23 c 0,-46.57 -4.52,-88.34 -13.57,-125.27 -9.05,-36.93 -22.18,-68.15 -39.38,-93.66 -17.2,-25.52 -38.19,-45.02 -62.95,-58.52 -24.78,-13.49 -52.89,-20.24 -84.33,-20.24 -31.15,0 -58.59,6.31 -82.32,18.91 -23.74,12.6 -43.61,30.99 -59.63,55.17 -16.01,24.18 -28.1,53.92 -36.26,89.22 -8.16,35.3 -12.24,75.65 -12.24,121.03 0,49.25 4.08,92.93 12.24,131.05 8.16,38.12 20.61,70.22 37.37,96.34 16.76,26.1 37.75,45.9 62.97,59.4 25.21,13.5 54.73,20.25 88.55,20.25 126.37,0 189.55,-97.89 189.55,-293.68" transform="matrix(1.1509478092193604, 0, 0, 1.0414228439331055, -2416.805495600282, 681.9921655135122)"/><path id="path20" fill="red" fill-opacity="1" fill-rule="nonzero" stroke="none" d="m 3322.89,2535.95 v 222.49 c 0,4.15 0,8.82 0,14.01 0,5.19 0.29,10.61 0.89,16.24 -1.49,-1.48 -2.53,-3.05 -3.12,-4.67 -0.59,-1.64 -1.63,-3.19 -3.11,-4.67 -4.45,-4.45 -10.54,-11.27 -18.24,-20.47 -7.73,-9.2 -16.24,-20.02 -25.59,-32.48 -9.34,-12.46 -19.29,-26.25 -29.81,-41.39 -10.54,-15.13 -20.78,-30.99 -30.71,-47.61 -9.94,-16.61 -19.35,-33.52 -28.26,-50.72 -8.9,-17.22 -16.61,-34.12 -23.13,-50.73 z m 167.75,-67.19 h -82.76 v -148.62 h -84.99 v 148.62 h -243.41 l -5.33,26.25 c 3.26,18.69 10.3,40.2 21.13,64.53 10.83,24.32 23.96,49.68 39.39,76.09 15.42,26.39 32.4,52.95 50.95,79.64 18.53,26.7 37.08,51.84 55.61,75.43 18.55,23.58 36.34,44.72 53.4,63.4 17.06,18.7 31.96,33.23 44.73,43.61 h 68.52 v -361.76 h 82.76 v -67.19" transform="matrix(1.1509478092193604, 0, 0, 1.0414228439331055, -2416.805495600282, 681.9921655135122)"/><path id="path22" fill="#f5f9fc" fill-opacity="1" fill-rule="nonzero" stroke="none" d="m 2333.78,2565.95 v 222.49 c 0,4.15 0,8.82 0,14.01 0,5.19 0.3,10.61 0.9,16.24 -1.49,-1.48 -2.53,-3.05 -3.12,-4.67 -0.6,-1.64 -1.63,-3.19 -3.11,-4.67 -4.46,-4.45 -10.53,-11.27 -18.25,-20.47 -7.71,-9.2 -16.24,-20.02 -25.59,-32.48 -9.34,-12.46 -19.28,-26.25 -29.81,-41.39 -10.53,-15.13 -20.77,-30.99 -30.7,-47.61 -9.94,-16.61 -19.36,-33.52 -28.26,-50.72 -8.9,-17.22 -16.61,-34.12 -23.13,-50.73 z m 167.76,-67.19 h -82.77 v -148.62 h -84.99 v 148.62 h -243.39 l -5.35,26.25 c 3.27,18.69 10.31,40.2 21.14,64.53 10.83,24.32 23.95,49.68 39.38,76.09 15.42,26.39 32.41,52.95 50.95,79.64 18.54,26.7 37.08,51.84 55.62,75.43 18.54,23.58 36.34,44.72 53.4,63.4 17.05,18.7 31.96,33.23 44.72,43.61 h 68.52 v -361.76 h 82.77 v -67.19" transform="matrix(1.1509478092193604, 0, 0, 1.0414228439331055, -2416.805495600282, 681.9921655135122)"/><path id="path24" fill="#f5f9fc" fill-opacity="1" fill-rule="nonzero" stroke="none" d="m 2884.31,2633.59 c 0,77.42 -8.9,135.34 -26.7,173.75 -17.8,38.42 -43.91,57.63 -78.32,57.63 -36.79,0 -64.52,-19.51 -83.21,-58.51 -18.69,-39.02 -28.03,-98.12 -28.03,-177.33 0,-72.97 9.19,-127.56 27.59,-163.75 18.39,-36.19 45.39,-54.28 80.99,-54.28 35.29,0 62.07,18.4 80.31,55.18 18.25,36.78 27.37,92.55 27.37,167.31 z m 87.21,6.23 c 0,-46.57 -4.53,-88.34 -13.57,-125.27 -9.05,-36.93 -22.18,-68.15 -39.38,-93.66 -17.2,-25.52 -38.2,-45.02 -62.96,-58.52 -24.78,-13.49 -52.89,-20.24 -84.33,-20.24 -31.14,0 -58.58,6.31 -82.32,18.91 -23.73,12.6 -43.6,30.99 -59.62,55.17 -16.02,24.18 -28.11,53.92 -36.27,89.22 -8.16,35.3 -12.24,75.65 -12.24,121.03 0,49.25 4.08,92.93 12.24,131.05 8.16,38.12 20.62,70.22 37.38,96.34 16.76,26.1 37.75,45.9 62.96,59.4 25.21,13.5 54.73,20.25 88.55,20.25 126.38,0 189.56,-97.89 189.56,-293.68" transform="matrix(1.1509478092193604, 0, 0, 1.0414228439331055, -2416.805495600282, 681.9921655135122)"/><path id="path26" fill="#f5f9fc" fill-opacity="1" fill-rule="nonzero" stroke="none" d="m 3299.56,2565.95 v 222.49 c 0,4.15 0,8.82 0,14.01 0,5.19 0.29,10.61 0.89,16.24 -1.49,-1.48 -2.53,-3.05 -3.12,-4.67 -0.59,-1.64 -1.63,-3.19 -3.11,-4.67 -4.45,-4.45 -10.54,-11.27 -18.24,-20.47 -7.73,-9.2 -16.24,-20.02 -25.59,-32.48 -9.35,-12.46 -19.29,-26.25 -29.81,-41.39 -10.54,-15.13 -20.78,-30.99 -30.71,-47.61 -9.94,-16.61 -19.35,-33.52 -28.26,-50.72 -8.9,-17.22 -16.61,-34.12 -23.13,-50.73 z m 167.75,-67.19 h -82.76 v -148.62 h -84.99 v 148.62 h -243.41 l -5.34,26.25 c 3.27,18.69 10.31,40.2 21.14,64.53 10.83,24.32 23.96,49.68 39.39,76.09 15.42,26.39 32.4,52.95 50.95,79.64 18.53,26.7 37.08,51.84 55.61,75.43 18.55,23.58 36.34,44.72 53.4,63.4 17.06,18.7 31.96,33.23 44.73,43.61 h 68.52 v -361.76 h 82.76 v -67.19" transform="matrix(1.1509478092193604, 0, 0, 1.0414228439331055, -2416.805495600282, 681.9921655135122)"/></g></svg>