<?xml version="1.0" encoding="utf-8"?>
<svg id="master-artboard" viewBox="0 0 1400 250" version="1.1" xmlns="http://www.w3.org/2000/svg" preserveAspectRatio="none" style="enable-background:new 0 0 336 235.2;">
<g transform="matrix(0.2472536563873291, 0, 0, -0.2472536563873291, 9.095534426672657, 928.8041629946797)" id="g12">
<g transform="matrix(1.0236009359359741, 0, 0, 1.0049269887084942, -31.5311336517334, 2019.6810779241855)">
<path id="path90" style="fill:#f5f9fc;fill-opacity:1;fill-rule:nonzero;stroke:none" d="M 4586.67,1008.89 H 0 v 210 h 4586.67 v -210" transform="matrix(0.9999999999999999, 0, 0, 0.9999999999999999, 0, 0)"/>
<path id="path92" style="fill:#f5f9fc;fill-opacity:1;fill-rule:nonzero;stroke:none" d="m 4941.65,723.891 h -40 c -215.39,0 -390,174.609 -390,389.999 v 0 c 0,215.39 174.61,390 390,390 h 40 V 723.891" transform="matrix(0.9999999999999999, 0, 0, 0.9999999999999999, 0, 0)"/>
<path id="path94" style="fill:#f5f9fc;fill-opacity:1;fill-rule:nonzero;stroke:none" d="m 5451.65,1293.89 h -370 c -43.99,0 -80,36 -80,80 v 0 c 0,44 36.01,80 80,80 h 370 c 44,0 80,-36 80,-80 v 0 c 0,-44 -36,-80 -80,-80" transform="matrix(0.9999999999999999, 0, 0, 0.9999999999999999, 0, 0)"/>
<path id="path96" style="fill:#f5f9fc;fill-opacity:1;fill-rule:nonzero;stroke:none" d="m 5451.65,793.891 h -370 c -43.99,0 -80,36 -80,80 v 0 c 0,44 36.01,80 80,80 h 370 c 44,0 80,-36 80,-80 v 0 c 0,-44 -36,-80 -80,-80" transform="matrix(0.9999999999999999, 0, 0, 0.9999999999999999, 0, 0)"/>
<path id="path98" style="fill: rgb(33, 0, 54); fill-opacity: 1; fill-rule: nonzero; stroke: none;" d="m 2384.26,1243.33 -127.63,-91.55 72.95,-35.67 -97.54,-37.03 97.54,-32.31 -135.7,-57.879 H 3340.3 l -55.11,49.809 55.11,48.46 -55.11,28.95 55.11,51.83 -117.9,32.3 117.9,43.09 h -956.04" transform="matrix(0.9999999999999999, 0, 0, 0.9999999999999999, 0, 0)"/><path id="path100" style="fill: rgb(255, 0, 0); fill-opacity: 1; fill-rule: nonzero; stroke: none;" d="m 2365.24,1293.89 -71.91,80 36.25,42.78 z" transform="matrix(0.9999999999999999, 0, 0, 0.9999999999999999, 0, 0)"/><path id="path102" style="fill: rgb(255, 0, 0); fill-opacity: 1; fill-rule: nonzero; stroke: none;" d="m 2609.5,1176.67 72.21,240 103.72,-61.39 z" transform="matrix(0.9999999999999999, 0, 0, 0.9999999999999999, 0, 0)"/><path id="path104" style="fill: rgb(255, 0, 0); fill-opacity: 1; fill-rule: nonzero; stroke: none;" d="m 2529.53,1036.67 121.55,-193.338 -60.77,-49.441 z" transform="matrix(0.9999999999999999, 0, 0, 0.9999999999999999, 0, 0)"/><path id="path108" style="fill: rgb(255, 0, 0); fill-opacity: 1; fill-rule: nonzero; stroke: none;" d="m 2866.69,784.32 199.15,218.75 -105.57,-236.129 z" transform="matrix(0.9999999999999999, 0, 0, 0.9999999999999999, 0, 0)"/><path id="path110" style="fill: rgb(255, 0, 0); fill-opacity: 1; fill-rule: nonzero; stroke: none;" d="m 3033.87,1119.54 -66.26,-110.64 -35.54,60.51 z" transform="matrix(0.9999999999999999, 0, 0, 0.9999999999999999, 0, 0)"/><path id="path112" style="fill: rgb(255, 0, 0); fill-opacity: 1; fill-rule: nonzero; stroke: none;" d="m 2774.03,919.262 -103.16,115.408 141.11,-50.26 z" transform="matrix(0.9999999999999999, 0, 0, 0.9999999999999999, 0, 0)"/><path id="path114" style="fill: rgb(255, 0, 0); fill-opacity: 1; fill-rule: nonzero; stroke: none;" d="m 3222.4,1036.67 -30.7,-121.389 h 61.63 z" transform="matrix(0.9999999999999999, 0, 0, 0.9999999999999999, 0, 0)"/><path id="path116" style="fill: rgb(255, 0, 0); fill-opacity: 1; fill-rule: nonzero; stroke: none;" d="m 2365.24,1008.89 101.13,-134.999 -101.13,-7.5 z" transform="matrix(0.9999999999999999, 0, 0, 0.9999999999999999, 0, 0)"/><path id="path118" style="fill: rgb(255, 0, 0); fill-opacity: 1; fill-rule: nonzero; stroke: none;" d="m 2428.8,1195.5 69.97,-18.83 -69.97,-18.84 -18.83,-69.98 -18.84,69.98 -69.97,18.84 69.97,18.83 18.84,69.98 18.83,-69.98" transform="matrix(0.9999999999999999, 0, 0, 0.9999999999999999, 0, 0)"/><path id="path120" style="fill: rgb(255, 0, 0); fill-opacity: 1; fill-rule: nonzero; stroke: none;" d="m 3253.96,820.082 49.84,-13.402 -49.84,-13.418 -13.41,-49.84 -13.41,49.84 -49.84,13.418 49.84,13.402 13.41,49.84 13.41,-49.84" transform="matrix(0.9999999999999999, 0, 0, 0.9999999999999999, 0, 0)"/><path id="path122" style="fill: rgb(255, 0, 0); fill-opacity: 1; fill-rule: nonzero; stroke: none;" d="m 2886.77,1256.74 49.83,-13.41 -49.83,-13.41 -13.41,-49.84 -13.42,49.84 -49.83,13.41 49.83,13.41 13.42,49.84 13.41,-49.84" transform="matrix(0.9999999999999999, 0, 0, 0.9999999999999999, 0, 0)"/><path id="path106" style="fill: rgb(255, 0, 0); fill-opacity: 1; fill-rule: nonzero; stroke: none;" d="m 3123.72,1209.81 -208.14,124.24 61.29,75.95 z" transform="matrix(0.9999999999999999, 0, 0, 0.9999999999999999, 0, 0)"/><path d="M 1616.537353515625 1572.385498046875 L 1947.6142578125 1730.0411376953125" style="fill: rgb(255, 0, 0); fill-opacity: 1; stroke: rgb(0, 0, 0); stroke-opacity: 1; stroke-width: 0; paint-order: fill;" transform="matrix(0.9999999999999999, 0, 0, 0.9999999999999999, 0, 0)"/></g><path d="M 1658.578857421875 2292.346435546875" style="fill: rgb(255, 0, 0); fill-opacity: 1; stroke: rgb(0, 0, 0); stroke-opacity: 1; stroke-width: 0; paint-order: fill;"/><path d="M 1810.9793701171875 2570.871337890625" style="fill: rgb(255, 0, 0); fill-opacity: 1; stroke: rgb(0, 0, 0); stroke-opacity: 1; stroke-width: 0; paint-order: fill;"/><path d="M 3655.550537109375 2302.856689453125" style="fill: rgb(245, 249, 252); fill-opacity: 1; stroke: rgb(0, 0, 0); stroke-opacity: 1; stroke-width: 0; paint-order: fill;"/></g></svg>